<svg xmlns="http://www.w3.org/2000/svg" width="446.853" height="446.853">
  <path
    d="M444.274 93.36a14.33 14.33 0 0 0-11.145-6.123L155.942 75.29c-7.953-.348-14.6 5.792-14.94 13.708s5.792 14.6 13.707 14.94l258.42 11.14L362.32 273.6H136.205L95.354 51.18c-.898-4.875-4.245-8.942-8.86-10.753L19.586 14.14c-7.374-2.887-15.695.735-18.59 8.1s.73 15.695 8.1 18.59l59.49 23.37 41.572 226.335c1.253 6.804 7.183 11.746 14.104 11.746h6.896l-15.747 43.74c-1.318 3.664-.775 7.733 1.468 10.916s5.883 5.078 9.772 5.078h11.045c-6.844 7.617-11.045 17.646-11.045 28.675 0 23.718 19.3 43.012 43.012 43.012s43.012-19.294 43.012-43.012c0-11.028-4.2-21.058-11.044-28.675h93.777c-6.847 7.617-11.047 17.646-11.047 28.675 0 23.718 19.294 43.012 43.012 43.012s43.012-19.294 43.012-43.012c0-11.028-4.2-21.058-11.042-28.675h13.432a11.95 11.95 0 0 0 11.948-11.947 11.95 11.95 0 0 0-11.948-11.948H143.65l12.902-35.843h216.22c6.235 0 11.752-4.028 13.65-9.96l59.74-186.387c1.372-4.254.668-8.905-1.9-12.573zm-274.6 316.454a19.14 19.14 0 0 1-19.117-19.116c0-10.543 8.574-19.117 19.117-19.117a19.14 19.14 0 0 1 19.116 19.117c0 10.543-8.573 19.116-19.116 19.116zm157.71 0c-10.543 0-19.116-8.573-19.116-19.116a19.14 19.14 0 0 1 19.116-19.117 19.14 19.14 0 0 1 19.116 19.117c0 10.543-8.573 19.116-19.116 19.116z"/>
</svg>
