<svg xmlns="http://www.w3.org/2000/svg" width="48" height="48" viewBox="0 0 36 36"><path d="M35.78 7.52c-.207-.297-.54-.477-.898-.492L12.56 6.063c-.64-.027-1.176.47-1.203 1.105s.47 1.176 1.105 1.203l20.813.898-4.094 12.766H10.97L7.68 4.12a1.16 1.16 0 0 0-.715-.863L1.578 1.14a1.15 1.15 0 0 0-1.496.652c-.234.6.06 1.262.652 1.496l4.79 1.883L8.87 23.398c.102.547.578.945 1.137.945h.555l-1.27 3.523c-.105.297-.06.625.12.88s.473.4.785.4h.89c-.55.613-.89 1.422-.89 2.31a3.47 3.47 0 0 0 3.465 3.465 3.47 3.47 0 0 0 3.465-3.465c0-.887-.34-1.695-.89-2.31h7.555a3.43 3.43 0 0 0-.891 2.309 3.47 3.47 0 0 0 3.465 3.465c1.9 0 3.46-1.555 3.46-3.465 0-.887-.336-1.695-.887-2.31h1.082a.96.96 0 1 0 0-1.926H11.57l1.04-2.887h17.414c.5 0 .945-.324 1.098-.8L35.934 8.53a1.16 1.16 0 0 0-.152-1.012zM13.664 33.004a1.54 1.54 0 0 1-1.539-1.539c0-.848.69-1.54 1.54-1.54a1.54 1.54 0 0 1 1.539 1.539c0 .852-.687 1.54-1.54 1.54zm12.703 0c-.852 0-1.54-.687-1.54-1.54a1.54 1.54 0 0 1 1.539-1.539c.848 0 1.54.69 1.54 1.54a1.54 1.54 0 0 1-1.539 1.539zm0 0" fill="rgb(0%,0%,0%)"/></svg>