<svg xmlns="http://www.w3.org/2000/svg" width="512" height="512"><path d="M72 496h296a111.991 111.991 0 0 0 48-213.179V120a8 8 0 0 0-2.343-5.657l-96-96A8 8 0 0 0 312 16H72a40.045 40.045 0 0 0-40 40v400a40.045 40.045 0 0 0 40 40zm392-112a96 96 0 1 1-96-96 96.108 96.108 0 0 1 96 96zM320 43.313L388.687 112H344a24.027 24.027 0 0 1-24-24zM48 56a24.028 24.028 0 0 1 24-24h232v56a40.045 40.045 0 0 0 40 40h56v148.666A111.983 111.983 0 0 0 310.369 480H72a24.028 24.028 0 0 1-24-24zm112 112a8 8 0 0 0 8 8h192a8 8 0 0 0 0-16H168a8 8 0 0 0-8 8zm-72 56h160a8 8 0 0 0 0-16H88a8 8 0 0 0 0 16zm192 32h-64a8 8 0 0 0 0 16h64a8 8 0 0 0 0-16zM88 320h144a8 8 0 0 0 0-16H88a8 8 0 0 0 0 16zm0-144h48a8 8 0 0 0 0-16H88a8 8 0 0 0 0 16zm272 32h-80a8 8 0 0 0 0 16h80a8 8 0 0 0 0-16zM88 272h96a8 8 0 0 0 0-16H88a8 8 0 0 0 0 16zm128 128h-32a8 8 0 0 0 0 16h32a8 8 0 0 0 0-16zM88 416h64a8 8 0 0 0 0-16H88a8 8 0 0 0 0 16zm0-48h48a8 8 0 0 0 0-16H88a8 8 0 0 0 0 16zm0-240h96a8 8 0 0 0 0-16H88a8 8 0 0 0 0 16zm128 224h-48a8 8 0 0 0 0 16h48a8 8 0 0 0 0-16zm109.657 50.343a8 8 0 0 0-11.314 11.314l32 32A8 8 0 0 0 352 448q.394 0 .8-.04a8 8 0 0 0 5.868-3.523l64-96a8 8 0 0 0-13.312-8.876l-58.587 87.88z"/></svg>