<svg xmlns="http://www.w3.org/2000/svg" width="48" height="48" viewBox="0 0 36 36"><path d="M5.063 34.875h20.813c3.684 0 6.875-2.55 7.684-6.145s-.98-7.266-4.31-8.844V8.438c0-.148-.06-.293-.164-.398l-6.75-6.75c-.105-.105-.25-.164-.398-.164H5.063c-1.55 0-2.812 1.262-2.812 2.813v28.125c0 1.55 1.262 2.813 2.813 2.813zM32.625 27c0 3.727-3.023 6.75-6.75 6.75s-6.75-3.023-6.75-6.75 3.023-6.75 6.75-6.75a6.76 6.76 0 0 1 6.75 6.75zM22.5 3.047l4.828 4.828h-3.14A1.69 1.69 0 0 1 22.5 6.188zm-19.125.89A1.69 1.69 0 0 1 5.063 2.25h16.313v3.938c0 1.55 1.262 2.813 2.813 2.813h3.938v10.453a7.88 7.88 0 0 0-9.457 4.367c-1.602 3.633-.246 7.887 3.156 9.93H5.063a1.69 1.69 0 0 1-1.687-1.687zm7.875 7.875a.56.56 0 0 0 .563.563h13.5a.56.56 0 1 0 0-1.125h-13.5a.56.56 0 0 0-.562.563zM6.188 15.75h11.25a.56.56 0 1 0 0-1.125H6.188a.56.56 0 1 0 0 1.125zm13.5 2.25h-4.5a.56.56 0 1 0 0 1.125h4.5a.56.56 0 1 0 0-1.125zm-13.5 4.5h10.125a.56.56 0 1 0 0-1.125H6.188a.56.56 0 1 0 0 1.125zm0-10.125h3.375a.56.56 0 1 0 0-1.125H6.188a.56.56 0 1 0 0 1.125zm19.125 2.25h-5.625a.56.56 0 1 0 0 1.125h5.625a.56.56 0 1 0 0-1.125zm-19.125 4.5h6.75a.56.56 0 1 0 0-1.125h-6.75a.56.56 0 1 0 0 1.125zm9 9h-2.25a.56.56 0 1 0 0 1.125h2.25a.56.56 0 1 0 0-1.125zm-9 1.125h4.5a.56.56 0 1 0 0-1.125h-4.5a.56.56 0 1 0 0 1.125zm0-3.375h3.375a.56.56 0 1 0 0-1.125H6.188a.56.56 0 1 0 0 1.125zM6.188 9h6.75a.56.56 0 1 0 0-1.125h-6.75a.56.56 0 1 0 0 1.125zm9 15.75h-3.375a.56.56 0 1 0 0 1.125h3.375a.56.56 0 1 0 0-1.125zm7.71 3.54c-.22-.22-.578-.22-.797 0s-.22.578 0 .797l2.25 2.25c.105.105.25.164.398.164.02 0 .04 0 .055-.004a.56.56 0 0 0 .414-.246l4.5-6.75a.56.56 0 0 0-.156-.777c-.258-.172-.605-.105-.78.152l-4.117 6.18zm0 0" fill="rgb(0%,0%,0%)"/></svg>