<svg xmlns="http://www.w3.org/2000/svg" viewBox="0 0 511 512"><path d="M235.793 347.266c3.902-3.9 3.902-10.238 0-14.148a10.02 10.02 0 0 0-14.145 0c-3.898 3.9-3.898 10.238 0 14.148a10.02 10.02 0 0 0 14.145 0zM188.45 109.97c0 60.637 49.332 109.973 109.97 109.973S408.4 170.607 408.4 109.97 359.055 0 298.418 0 188.45 49.332 188.45 109.97zm199.945 0c0 49.613-40.363 89.977-89.977 89.977s-89.977-40.363-89.977-89.977 40.363-89.973 89.977-89.973 89.977 40.363 89.977 89.973zm0 0"/><path d="M115.652 509.043c3.875 3.906 10.184 3.95 14.1.082l48.47-47.75c8.234-8.234 10.738-20.426 7.117-31.023l10.426-10.055a29.81 29.81 0 0 1 20.816-8.41h132.902c23.578 0 45.863-9.055 62.758-25.496.695-.676-5.277 6.36 90.668-108.312 14.23-16.836 12.102-42.117-4.75-56.363-16.746-14.113-41.832-12.086-56.102 4.46l-58.992 60.633c-7.45-9.168-18.8-14.883-31.082-14.883h-111.48c-15.863-6.637-32.695-9.996-50.062-9.996-48.14 0-90.176 22.234-112.734 63.922-9.504-1.8-19.527 1.074-26.738 8.285l-47.56 47.7a10 10 0 0 0-.016 14.102zm74.793-227.12c15.313 0 30.117 3.082 44.012 9.16a9.98 9.98 0 0 0 4.008.84h113.527c10.84 0 19.996 8.84 19.996 19.992 0 11.027-8.97 19.996-19.996 19.996h-81.566a10 10 0 0 0-9.996 9.996 10 10 0 0 0 9.996 9.996h81.566c22.05 0 39.988-17.937 39.988-39.988 0-1.758-.125-3.5-.352-5.227l65.457-67.312c7.125-8.4 19.773-9.477 28.188-2.383 8.422 7.12 9.488 19.762 2.344 28.22L397.95 372.406a69.61 69.61 0 0 1-48.457 19.488H216.6a49.7 49.7 0 0 0-34.703 14.016l-8.496 8.2-78.32-78.316c18.305-34.34 52.652-53.87 95.375-53.87zm-125.32 66.344c3.297-3.297 8.36-3.9 12.38-1.406 1.73 1.055-3.238-3.47 86.6 86.234 3.996 3.996 3.78 10.363.055 14.1l-41.32 40.707-98.23-98.98zm221.297-298.28v11.715c-11.637 4.125-19.996 15.238-19.996 28.273 0 16.535 13.453 29.992 29.992 29.992a10.01 10.01 0 0 1 9.996 9.996 10.01 10.01 0 0 1-9.996 9.996c-4.27 0-8.883-2.684-12.98-7.562a10 10 0 0 0-14.086-1.219 10 10 0 0 0-1.219 14.086c5.344 6.355 11.63 10.785 18.3 13.02v11.668a10 10 0 0 0 9.996 9.996 10 10 0 0 0 9.996-9.996v-11.715c11.637-4.13 19.996-15.242 19.996-28.273 0-16.54-13.453-29.992-29.992-29.992a10.01 10.01 0 0 1-9.996-9.996c0-5.512 4.484-10 9.996-10 3.543 0 7.28 1.8 10.813 5.227 3.97 3.84 10.297 3.734 14.137-.23s3.734-10.297-.23-14.137c-5.074-4.9-10.152-7.687-14.723-9.203V49.988a10 10 0 0 0-9.996-10 10 10 0 0 0-9.996 10zm0 0"/></svg>