<svg xmlns="http://www.w3.org/2000/svg" width="48" height="48" viewBox="0 0 36 36" fill="rgb(0%,0%,0%)"><path d="M16.613 24.418a.71.71 0 0 0 0-.996.71.71 0 0 0-1 0 .71.71 0 0 0 0 .996.71.71 0 0 0 1 0zM13.277 7.73a7.75 7.75 0 0 0 7.746 7.734c4.273 0 7.75-3.47 7.75-7.734A7.75 7.75 0 0 0 21.023 0a7.75 7.75 0 0 0-7.746 7.73zm14.086 0c0 3.488-2.844 6.328-6.34 6.328a6.34 6.34 0 0 1-6.34-6.328 6.34 6.34 0 0 1 6.34-6.324 6.34 6.34 0 0 1 6.34 6.324zM8.148 35.793c.273.273.715.277.992.004l3.414-3.355c.582-.578.758-1.437.504-2.184l.734-.707a2.11 2.11 0 0 1 1.465-.6h9.363a6.32 6.32 0 0 0 4.422-1.793c.047-.047-.37.45 6.387-7.617a2.81 2.81 0 0 0-.336-3.961c-1.18-.992-2.945-.852-3.95.313l-4.156 4.266c-.527-.645-1.324-1.047-2.2-1.047h-7.852a9.08 9.08 0 0 0-3.527-.703c-3.395 0-6.355 1.563-7.945 4.492a2.12 2.12 0 0 0-1.883.582L.238 26.848c-.273.273-.273.72 0 .992zm5.27-15.97c1.078 0 2.12.215 3.098.64a.72.72 0 0 0 .285.063h7.996a1.41 1.41 0 0 1 1.41 1.402 1.41 1.41 0 0 1-1.41 1.406H19.05c-.387 0-.703.316-.703.703s.316.703.703.703h5.746c1.555 0 2.816-1.262 2.816-2.812 0-.12-.008-.246-.023-.367l4.613-4.73c.5-.6 1.4-.668 1.984-.168s.668 1.4.164 1.984l-6.316 7.535a4.9 4.9 0 0 1-3.414 1.371h-9.363a3.51 3.51 0 0 0-2.441.984l-.602.578L6.7 23.6c1.3-2.414 3.707-3.785 6.72-3.785zM4.6 24.488c.23-.234.586-.273.87-.102.12.074-.23-.242 6.102 6.066.28.28.266.727.004.992l-2.914 2.86-6.918-6.957zM20.2 3.515v.824a2.11 2.11 0 0 0-1.41 1.988c0 1.16.95 2.105 2.113 2.105.387.004.703.316.703.703s-.316.703-.703.703c-.3 0-.625-.187-.914-.53-.25-.297-.695-.336-.992-.086s-.336.695-.086.992c.375.445.82.758 1.3.914v.82c0 .387.316.703.703.703s.703-.316.703-.703v-.824a2.11 2.11 0 0 0 1.41-1.988 2.12 2.12 0 0 0-2.113-2.11.7.7 0 0 1-.703-.699c0-.4.316-.703.703-.703.25 0 .512.125.762.367.28.27.727.262.996-.016a.71.71 0 0 0-.016-.996c-.36-.344-.715-.54-1.04-.648v-.816a.7.7 0 0 0-.703-.703c-.387 0-.703.313-.703.703zm0 0"/></svg>