<svg xmlns="http://www.w3.org/2000/svg" width="48" height="48" viewBox="0 0 36 36"><path d="M1.262 22.207V6.89c0-.852.69-1.543 1.543-1.543h15.31a1.54 1.54 0 0 1 1.539 1.543v15.316a.51.51 0 0 1-.512.516H1.777c-.285 0-.516-.23-.516-.516zm12.363 5.246a3.2 3.2 0 0 1-3.195 3.199 3.2 3.2 0 0 1-3.195-3.199c0-1.766 1.43-3.195 3.195-3.195s3.195 1.43 3.195 3.195zm-1.598 0c0-.883-.715-1.598-1.598-1.598s-1.598.715-1.598 1.598.715 1.598 1.598 1.598 1.598-.715 1.598-1.598zm-4.352-3.195H.516c-.285 0-.516.23-.516.516v1.56c0 .28.23.512.516.512h5.738c.152-1.027.668-1.937 1.422-2.586zm22.672 3.195a3.2 3.2 0 0 1-3.195 3.199 3.2 3.2 0 0 1-3.195-3.199c0-1.766 1.43-3.195 3.195-3.195s3.195 1.43 3.195 3.195zm-1.598 0c0-.883-.715-1.598-1.598-1.598s-1.598.715-1.598 1.598.715 1.598 1.598 1.598 1.598-.715 1.598-1.598zm7.25-2.68v1.56c0 .28-.23.512-.516.512h-4.156a4.23 4.23 0 0 0-4.176-3.613c-2.12 0-3.875 1.574-4.176 3.613h-8.37a4.24 4.24 0 0 0-1.422-2.586h7.938V9.566c.004-.57.46-1.027 1.027-1.03H27a4.11 4.11 0 0 1 3.406 1.813l3.125 4.63c.46.68.703 1.48.703 2.3v6.98h1.25c.285 0 .516.23.516.516zm-5.21-9.676l-2.5-3.555a.52.52 0 0 0-.422-.219H23.97a.51.51 0 0 0-.512.516v3.55a.51.51 0 0 0 .512.516h6.398c.418 0 .66-.47.422-.81zm0 0" fill="rgb(0%,0%,0%)"/></svg>