<svg xmlns="http://www.w3.org/2000/svg" width="612" height="612"><path d="M21.474 377.522V117.138c0-14.47 11.73-26.2 26.2-26.2h260.25c14.47 0 26.198 11.73 26.198 26.2v260.385c0 4.823-3.91 8.733-8.733 8.733H30.207c-4.824 0-8.733-3.9-8.733-8.734zm210.16 89.202c0 30-24.33 54.338-54.338 54.338s-54.338-24.328-54.338-54.338 24.33-54.338 54.338-54.338 54.338 24.327 54.338 54.338zm-27.17 0c0-15.005-12.164-27.17-27.17-27.17s-27.17 12.164-27.17 27.17 12.165 27.17 27.17 27.17 27.17-12.165 27.17-27.17zm-73.97-54.34H8.733c-4.823 0-8.733 3.9-8.733 8.733v26.495c0 4.823 3.9 8.733 8.733 8.733h97.598c2.548-17.484 11.373-32.928 24.164-43.96zm385.443 54.34c0 30-24.33 54.338-54.338 54.338s-54.338-24.328-54.338-54.338 24.328-54.338 54.338-54.338 54.338 24.327 54.338 54.338zm-27.168 0c0-15.005-12.165-27.17-27.17-27.17s-27.17 12.164-27.17 27.17 12.164 27.17 27.17 27.17 27.17-12.165 27.17-27.17zM612 421.118v26.495c0 4.823-3.9 8.733-8.733 8.733h-70.704c-5.057-34.683-34.906-61.427-70.96-61.427-36.062 0-65.912 26.745-70.97 61.427H248.26c-2.55-17.483-11.373-32.928-24.164-43.96H359.09v-249.79a17.47 17.47 0 0 1 17.466-17.466h82.445a69.86 69.86 0 0 1 57.9 30.77l53.15 78.72c7.796 11.547 11.962 25.16 11.962 39.094v118.672h21.253c4.823 0 8.733 3.9 8.733 8.733zm-88.592-164.483l-42.5-60.393c-1.636-2.324-4.3-3.707-7.142-3.707H407.47c-4.822 0-8.733 3.9-8.733 8.733v60.393c0 4.824 3.9 8.733 8.733 8.733h108.798c7.074 0 11.212-7.973 7.14-13.76z"/></svg>